<?xml version="1.0"?>
<svg xmlns="http://www.w3.org/2000/svg" height="512px" viewBox="1 -38 511.99999 511" width="512px">
<path d="m469.332031.5h-426.664062c-23.554688.027344-42.6406252 19.113281-42.667969 42.667969v273.066406c.0273438 23.550781 19.113281 42.636719 42.667969 42.664063h253.984375c.65625.855468 1.332031 1.589843 2.015625 2.355468v65.914063c-.003907 4.710937 3.8125 8.535156 8.527343 8.539062 1.089844 0 2.167969-.207031 3.179688-.613281l39.492188-15.804688 39.492187 15.804688c4.375 1.753906 9.339844-.371094 11.09375-4.746094.40625-1.011718.613281-2.089844.613281-3.179687v-65.914063c.691406-.773437 1.367188-1.550781 2.015625-2.355468h66.25c23.554688-.027344 42.640625-19.113282 42.667969-42.664063v-273.066406c-.027344-23.554688-19.113281-42.640625-42.667969-42.667969zm-77.515625 345.039062c-1.601562 2.320313-3.414062 4.492188-5.410156 6.484376-19.660156 20.179687-51.957031 20.597656-72.136719.9375-.351562-.34375-.695312-.691407-1.035156-1.042969-1.980469-1.976563-3.773437-4.132813-5.359375-6.441407-16.179688-23.191406-10.492188-55.105468 12.699219-71.285156 23.191406-16.179687 55.105469-10.492187 71.285156 12.699219 12.292969 17.621094 12.273437 41.042969-.042969 58.648437zm25.789063-37.839843c-.136719-1.082031-.367188-2.132813-.554688-3.199219-.144531-.851562-.257812-1.707031-.425781-2.472656-.308594-1.453125-.703125-2.859375-1.101562-4.269532-.1875-.671874-.332032-1.363281-.546876-2.03125-.640624-2.039062-1.375-4.042968-2.203124-5.972656-.058594-.144531-.136719-.28125-.195313-.425781-.785156-1.828125-1.636719-3.609375-2.558594-5.351563-.367187-.671874-.792969-1.320312-1.179687-1.988281-.679688-1.160156-1.355469-2.328125-2.097656-3.414062-.488282-.734375-1.03125-1.433594-1.542969-2.148438-.71875-.988281-1.433594-1.980469-2.203125-2.933593-.589844-.726563-1.210938-1.410157-1.828125-2.109376-.765625-.851562-1.550781-1.765624-2.371094-2.609374-.65625-.683594-1.347656-1.332032-2.039063-1.988282-.855468-.796875-1.707031-1.582031-2.558593-2.332031-.726563-.621094-1.476563-1.226563-2.238281-1.816406-.902344-.71875-1.824219-1.410157-2.765626-2.074219-.78125-.554688-1.578124-1.09375-2.386718-1.613281-.972656-.632813-1.972656-1.226563-2.980469-1.808594-.851563-.488281-1.703125-.957031-2.515625-1.398437-1.050781-.546876-2.117188-1.050782-3.191406-1.539063-.851563-.390625-1.707032-.792969-2.558594-1.152344-1.136719-.460937-2.296875-.851562-3.457031-1.261719-.851563-.296874-1.707031-.613281-2.621094-.851562-1.234375-.375-2.5-.675781-3.761719-.972656-.855468-.207032-1.707031-.4375-2.558594-.609375-1.417968-.28125-2.878906-.46875-4.328124-.664063-.734376-.09375-1.457032-.238281-2.203126-.308594-4.464843-.453124-8.964843-.453124-13.429687 0-.742187.070313-1.46875.214844-2.203125.308594-1.449219.195313-2.910156.382813-4.324219.664063-.855469.171875-1.707031.402343-2.5625.609375-1.261719.296875-2.558593.59375-3.761719.972656-.851562.261719-1.707031.578125-2.621093.851562-1.160157.402344-2.320313.800782-3.453125 1.261719-.855469.359375-1.707032.761719-2.5625 1.152344-1.074219.488281-2.140625.992187-3.191406 1.539063-.851563.441406-1.707032.910156-2.515626 1.398437-1.007812.578125-2.003906 1.175781-2.976562 1.808594-.8125.519531-1.605469 1.058593-2.390625 1.613281-.9375.664062-1.859375 1.355469-2.765625 2.074219-.757812.585937-1.507812 1.195312-2.234375 1.816406-.855469.75-1.707031 1.535156-2.5625 2.332031-.691406.65625-1.378906 1.304688-2.039063 1.988282-.851562.851562-1.601562 1.703124-2.371093 2.609374-.613281.699219-1.238281 1.382813-1.828125 2.109376-.765625.953124-1.484375 1.945312-2.199219 2.933593-.511719.714844-1.058594 1.414063-1.546875 2.148438-.742188 1.121093-1.414062 2.289062-2.097656 3.414062-.382813.667969-.808594 1.316407-1.175782 1.988281-.941406 1.707032-1.792968 3.523438-2.5625 5.351563-.058593.144531-.136718.28125-.195312.425781-.851562 1.945313-1.5625 3.953125-2.203125 5.972656-.210937.667969-.355469 1.359376-.542969 2.03125-.402344 1.410157-.792968 2.816407-1.101562 4.269532-.171875.808594-.28125 1.652344-.425782 2.472656-.1875 1.066406-.417968 2.117188-.554687 3.199219h-231.035156v-256h409.601562v256zm-33.605469 106.863281-30.957031-12.390625c-2.039063-.808594-4.3125-.808594-6.351563 0l-30.957031 12.390625v-39.253906c.1875.113281.402344.179687.597656.292968 20.824219 11.871094 46.375 11.851563 67.179688-.050781.15625-.097656.335937-.144531.488281-.242187zm110.933594-98.328125c0 14.136719-11.460938 25.597656-25.601563 25.597656h-56.171875c.554688-1.382812 1.003906-2.804687 1.476563-4.222656.144531-.445313.320312-.851563.460937-1.304687.871094-2.875 1.550782-5.808594 2.039063-8.773438.109375-.675781.203125-1.347656.289062-2.023438 0-.246093.078125-.496093.109375-.742187h43.265625c9.425781 0 17.066407-7.640625 17.066407-17.066406v-256c0-9.425781-7.640626-17.066407-17.066407-17.066407h-409.601562c-9.425781 0-17.066407 7.640626-17.066407 17.066407v256c0 9.425781 7.640626 17.066406 17.066407 17.066406h231c0 .25.066406.488281.101562.734375.09375.683594.1875 1.359375.296875 2.042969.484375 2.953125 1.164063 5.871093 2.03125 8.738281.144532.46875.332032.921875.488282 1.382812.460937 1.398438.902343 2.804688 1.457031 4.171876h-243.90625c-14.140625 0-25.601563-11.460938-25.601563-25.601563v-273.066406c0-14.140625 11.460938-25.601563 25.601563-25.601563h426.664062c14.140625 0 25.601563 11.460938 25.601563 25.601563zm0 0" fill="#f1f1f1"/>
<path d="m349.867188 273.566406c-23.566407 0-42.667969 19.101563-42.667969 42.667969 0 23.5625 19.101562 42.664063 42.667969 42.664063 23.5625 0 42.664062-19.101563 42.664062-42.664063-.027344-23.554687-19.113281-42.640625-42.664062-42.667969zm0 68.265625c-14.140626 0-25.601563-11.460937-25.601563-25.597656 0-14.140625 11.460937-25.601563 25.601563-25.601563 14.136718 0 25.597656 11.460938 25.597656 25.601563 0 14.136719-11.460938 25.597656-25.597656 25.597656zm0 0" fill="#f1f1f1"/>
<path d="m170.667969 102.902344h170.664062v17.066406h-170.664062zm0 0" fill="#f1f1f1"/>
<path d="m119.46875 171.167969h273.066406v17.066406h-273.066406zm0 0" fill="#f1f1f1"/>
</svg>
