<?xml version="1.0" encoding="iso-8859-1"?>
<!-- Generator: Adobe Illustrator 19.0.0, SVG Export Plug-In . SVG Version: 6.00 Build 0)  -->
<svg xmlns="http://www.w3.org/2000/svg" xmlns:xlink="http://www.w3.org/1999/xlink" version="1.1" id="Capa_1" x="0px" y="0px" viewBox="0 0 512.001 512.001" style="enable-background:new 0 0 512.001 512.001;" xml:space="preserve" width="512px" height="512px">
<g>
	<g>
		<g>
			<path d="M480.73,32.437H89.874c-17.244,0-31.272,14.028-31.272,31.271v62.479v228.978c0,4.224,0.846,8.252,2.371,11.931     l-35.288,35.288c-0.001,0.001-0.003,0.003-0.004,0.004l-15.037,15.038c-14.191,14.193-14.191,37.285,0,51.478     c6.875,6.874,16.016,10.66,25.739,10.66c1.215,0,2.422-0.059,3.615-0.176c0.597-0.058,1.191-0.131,1.781-0.219     c0.824-0.122,1.638-0.283,2.447-0.462c0.209-0.046,0.419-0.088,0.627-0.137c0.035-0.008,0.07-0.015,0.105-0.023     c0.746-0.179,1.484-0.383,2.214-0.61c0.423-0.131,0.836-0.285,1.253-0.431c0.293-0.103,0.591-0.193,0.881-0.303     c0.103-0.039,0.202-0.085,0.304-0.125c0.353-0.138,0.703-0.282,1.051-0.431c0.479-0.204,0.952-0.421,1.422-0.646     c0.382-0.183,0.761-0.369,1.137-0.565c0.549-0.287,1.092-0.587,1.627-0.903c0.27-0.16,0.538-0.323,0.804-0.49     c0.594-0.371,1.179-0.758,1.753-1.165c0.133-0.095,0.268-0.186,0.4-0.282c0.642-0.468,1.266-0.965,1.88-1.478     c0.178-0.149,0.355-0.299,0.53-0.452c0.651-0.565,1.292-1.146,1.907-1.762l15.039-15.038c0.001-0.001,0.002-0.003,0.004-0.004     l67.427-67.427h163.035c2.961,48.233,43.134,86.567,92.1,86.567c49.667,0,90.289-39.443,92.203-88.649     c11.725-4.514,20.072-15.893,20.072-29.189V126.187V63.708C512.001,46.465,497.973,32.437,480.73,32.437z M47.977,454.762     c-3.097,3.097-7.215,4.803-11.595,4.803s-8.499-1.706-11.596-4.803c-1.998-1.998-3.372-4.388-4.121-6.924     c-0.112-0.38-0.211-0.764-0.295-1.151c-0.169-0.773-0.281-1.555-0.337-2.341c-0.028-0.393-0.042-0.787-0.042-1.18     c0.001-4.2,1.599-8.399,4.796-11.596l7.966-7.966l23.192,23.192L47.977,454.762z M136.304,366.435l-20.001,20.001l-46.217,46.216     L46.895,409.46l27.273-27.273l15.753-15.753l45.244-45.244l23.192,23.192L136.304,366.435z M175.779,303.768l-5.01,24.743     l-19.733-19.733L175.779,303.768z M491.999,355.163c0,2.373-0.742,4.575-1.999,6.393c-8.846-41.717-45.961-73.117-90.275-73.117     c-9.382,0-18.643,1.405-27.522,4.176c-2.068,0.645-4.145,1.375-6.172,2.17c-5.142,2.017-7.675,7.819-5.658,12.961     c2.017,5.141,7.819,7.675,12.961,5.658c1.586-0.622,3.21-1.193,4.827-1.698c6.949-2.168,14.204-3.268,21.564-3.268     c34.965,0,64.206,24.959,70.856,57.994c0.93,4.62,1.424,9.396,1.424,14.286c0,1.925-0.098,3.826-0.247,5.714     C468.833,423.626,437.655,453,399.724,453s-69.109-29.375-72.034-66.566c-0.148-1.888-0.247-3.789-0.247-5.714     c0-4.827,0.481-9.606,1.418-14.286c0.512-2.554,1.154-5.08,1.941-7.565c1.667-5.265-1.249-10.885-6.514-12.552     c-5.264-1.669-10.885,1.249-12.552,6.514c-1.409,4.45-2.472,8.995-3.189,13.604H164.591l14.979-14.979l2.436-2.436     c1.543-1.543,2.899-3.238,4.053-5.054c0.24-0.378,0.472-0.762,0.694-1.151c1.558-2.72,2.677-5.686,3.309-8.806l7.342-36.258     c0.074-0.367,0.11-0.735,0.153-1.103c0.021-0.178,0.061-0.356,0.074-0.534c0.017-0.229,0.004-0.457,0.01-0.685     c0.008-0.316,0.028-0.634,0.013-0.948c-0.005-0.095-0.024-0.187-0.031-0.281c-0.031-0.446-0.07-0.891-0.145-1.329     c-0.015-0.088-0.044-0.172-0.061-0.26c-0.085-0.441-0.18-0.881-0.309-1.311c-0.003-0.008-0.006-0.016-0.009-0.024     c-0.622-2.049-1.742-3.948-3.309-5.515c-1.18-1.181-2.548-2.108-4.028-2.76c-2.465-1.087-5.239-1.408-7.966-0.856l-36.257,7.342     c-5.705,1.155-10.895,3.941-15.011,8.057l-2.436,2.436l-49.489,49.489v-213.28h0.001h413.395V355.163z M492,116.186H78.604     V63.708c0-6.214,5.056-11.27,11.271-11.27h390.854c6.214,0,11.27,5.056,11.27,11.27V116.186z" fill="#486ed2"/>
			<path d="M355.775,353.14l4.738,13.293l4.803,13.477c0.361,1.012,0.361,2.038,0,3.05l-1.238,3.473l-8.303,23.297     c-1.792,5.028-0.467,10.477,3.457,14.222c2.84,2.709,6.597,4.14,10.44,4.14c1.991,0,4.006-0.384,5.928-1.173l73.747-30.257     c4.88-2.002,8.386-5.72,9.881-10.228c0.525-1.583,0.807-3.26,0.808-4.998c0-6.514-3.893-12.211-10.189-15.003     c-0.167-0.074-0.329-0.155-0.5-0.225l-73.747-30.257c-5.633-2.312-12.058-1.146-16.37,2.967     C355.307,342.664,353.983,348.113,355.775,353.14z M384.156,373.196l-2.41-6.761l-2.648-7.429l18.107,7.429l36.565,15.002     l-12.183,4.999l-42.488,17.433l5.058-14.19c0.381-1.069,0.665-2.153,0.895-3.242C385.98,382.034,385.697,377.517,384.156,373.196     z" fill="#486ed2"/>
			<path d="M140.987,189.998h82.003c5.523,0,10-4.477,10-10c0-5.523-4.477-10-10-10h-82.003c-5.523,0-10,4.477-10,10     C130.987,185.521,135.464,189.998,140.987,189.998z" fill="#486ed2"/>
			<path d="M140.987,241.437h210.232c5.523,0,10-4.477,10-10c0-5.523-4.477-10-10-10H140.987c-5.523,0-10,4.477-10,10     C130.987,236.959,135.464,241.437,140.987,241.437z" fill="#486ed2"/>
			<path d="M253.761,183.818c0.25,0.61,0.56,1.19,0.92,1.73c0.36,0.55,0.78,1.06,1.24,1.52c0.46,0.46,0.97,0.88,1.52,1.24     c0.54,0.36,1.12,0.67,1.73,0.92c0.6,0.25,1.23,0.45,1.87,0.57c0.64,0.13,1.3,0.2,1.95,0.2s1.31-0.07,1.95-0.2     c0.64-0.12,1.27-0.32,1.87-0.57c0.61-0.25,1.19-0.56,1.73-0.92c0.55-0.36,1.06-0.78,1.52-1.24s0.88-0.97,1.24-1.52     c0.36-0.54,0.67-1.12,0.92-1.73c0.25-0.6,0.45-1.23,0.57-1.87c0.13-0.64,0.2-1.3,0.2-1.95s-0.07-1.31-0.2-1.95     c-0.12-0.64-0.32-1.27-0.57-1.87c-0.25-0.61-0.56-1.19-0.92-1.73c-0.36-0.55-0.78-1.06-1.24-1.52s-0.97-0.88-1.52-1.24     c-0.54-0.36-1.12-0.67-1.73-0.92c-0.6-0.25-1.23-0.45-1.87-0.57c-1.29-0.26-2.61-0.26-3.9,0c-0.64,0.12-1.27,0.32-1.87,0.57     c-0.61,0.25-1.19,0.56-1.73,0.92c-0.55,0.36-1.06,0.78-1.52,1.24c-0.46,0.46-0.88,0.97-1.24,1.52c-0.36,0.54-0.67,1.12-0.92,1.73     c-0.25,0.6-0.45,1.23-0.57,1.87c-0.13,0.64-0.2,1.3-0.2,1.95s0.07,1.31,0.2,1.95     C253.311,182.588,253.511,183.218,253.761,183.818z" fill="#486ed2"/>
			<path d="M469.109,64.353c-3.905-3.905-10.237-3.905-14.143,0l-7.427,7.427l-7.427-7.427c-3.905-3.905-10.237-3.905-14.143,0     c-3.905,3.905-3.905,10.237,0,14.143l7.427,7.427l-7.427,7.427c-3.905,3.905-3.905,10.237,0,14.143     c1.953,1.953,4.512,2.929,7.071,2.929c2.559,0,5.119-0.976,7.071-2.929l7.427-7.427l7.427,7.427     c1.953,1.953,4.512,2.929,7.071,2.929c2.559,0,5.119-0.976,7.071-2.929c3.905-3.905,3.905-10.237,0-14.143l-7.427-7.427     l7.427-7.427C473.014,74.59,473.014,68.258,469.109,64.353z" fill="#486ed2"/>
			<path d="M390.321,86.42h-26.103c-5.523,0-10,4.477-10,10s4.477,10,10,10h26.103c5.523,0,10-4.477,10-10     S395.844,86.42,390.321,86.42z" fill="#486ed2"/>
			<path d="M350.024,319.482c-0.25-0.6-0.56-1.19-0.92-1.73c-0.36-0.54-0.78-1.06-1.24-1.52c-0.46-0.46-0.97-0.88-1.52-1.24     c-0.54-0.36-1.12-0.67-1.73-0.92c-0.6-0.25-1.23-0.44-1.87-0.57c-1.29-0.26-2.62-0.26-3.9,0c-0.64,0.13-1.27,0.32-1.88,0.57     c-0.6,0.25-1.18,0.56-1.72,0.92c-0.55,0.36-1.06,0.78-1.52,1.24c-0.46,0.46-0.88,0.98-1.24,1.52c-0.37,0.54-0.67,1.13-0.92,1.73     s-0.45,1.23-0.57,1.87c-0.13,0.64-0.2,1.3-0.2,1.95c0,0.66,0.07,1.31,0.2,1.96c0.12,0.64,0.32,1.26,0.57,1.87     c0.25,0.6,0.55,1.18,0.92,1.73c0.36,0.54,0.78,1.06,1.24,1.52c0.46,0.46,0.97,0.87,1.52,1.24c0.54,0.36,1.12,0.67,1.72,0.92     c0.61,0.25,1.24,0.44,1.88,0.57c0.64,0.13,1.3,0.19,1.95,0.19c0.65,0,1.31-0.06,1.95-0.19c0.64-0.13,1.27-0.32,1.87-0.57     c0.61-0.25,1.19-0.56,1.73-0.92c0.55-0.37,1.06-0.78,1.52-1.24c0.46-0.46,0.88-0.98,1.24-1.52c0.36-0.55,0.67-1.13,0.92-1.73     c0.25-0.61,0.45-1.23,0.57-1.87c0.13-0.65,0.2-1.3,0.2-1.96c0-0.65-0.07-1.31-0.2-1.95     C350.474,320.712,350.274,320.083,350.024,319.482z" fill="#486ed2"/>
		</g>
	</g>
</g>
<g>
</g>
<g>
</g>
<g>
</g>
<g>
</g>
<g>
</g>
<g>
</g>
<g>
</g>
<g>
</g>
<g>
</g>
<g>
</g>
<g>
</g>
<g>
</g>
<g>
</g>
<g>
</g>
<g>
</g>
</svg>
