<?xml version="1.0" encoding="iso-8859-1"?>
<!-- Generator: Adobe Illustrator 21.0.0, SVG Export Plug-In . SVG Version: 6.00 Build 0)  -->
<svg version="1.1" id="Capa_1" xmlns="http://www.w3.org/2000/svg" xmlns:xlink="http://www.w3.org/1999/xlink" x="0px" y="0px"
	 viewBox="0 0 791.271 791.271" style="enable-background:new 0 0 791.271 791.271;" xml:space="preserve">
<g>
	<g id="USB_flash_drive">
		
			<linearGradient id="SVGID_1_" gradientUnits="userSpaceOnUse" x1="395.6357" y1="820.5092" x2="395.6357" y2="-127.5199" gradientTransform="matrix(1 0 0 -1 0 770.7196)">
			<stop  offset="0" style="stop-color:#FFF33B"/>
			<stop  offset="0.014" style="stop-color:#FEE72E"/>
			<stop  offset="0.042" style="stop-color:#FED51B"/>
			<stop  offset="0.07" style="stop-color:#FDCA10"/>
			<stop  offset="0.1" style="stop-color:#FDC70C"/>
			<stop  offset="0.4" style="stop-color:#F3903F"/>
			<stop  offset="0.8" style="stop-color:#ED683C"/>
			<stop  offset="1" style="stop-color:#E93E3A"/>
		</linearGradient>
		<path style="fill:url(#SVGID_1_);" d="M742.526,443.006L400.224,100.704c-29.539-29.539-77.431-29.539-106.97,0l-21.391,21.467
			L154.197,4.429c-5.908-5.906-15.484-5.906-21.391,0L4.429,132.76c-5.906,5.908-5.906,15.484,0,21.391l117.666,117.787
			l-21.391,21.391c-29.539,29.539-29.539,77.431,0,106.97l342.302,342.227c64.984,64.989,170.348,64.994,235.337,0.01
			c0.003-0.003,0.007-0.007,0.01-0.01l64.173-64.173c64.989-64.984,64.994-170.348,0.01-235.337
			C742.533,443.013,742.53,443.01,742.526,443.006z M36.516,143.486l106.986-106.97l106.97,106.97l-106.97,106.986L36.516,143.486z
			 M721.135,656.962l-64.173,64.173c-53.166,53.175-139.373,53.183-192.549,0.016c-0.005-0.005-0.011-0.011-0.016-0.016
			L122.095,378.833c-17.725-17.722-17.728-46.458-0.005-64.183c0.002-0.002,0.004-0.004,0.005-0.005l192.55-192.474
			c17.722-17.725,46.458-17.728,64.183-0.005c0.002,0.002,0.004,0.004,0.005,0.005l342.302,342.227
			c53.175,53.166,53.183,139.373,0.016,192.549C721.146,656.951,721.141,656.957,721.135,656.962z"/>
		
			<linearGradient id="SVGID_2_" gradientUnits="userSpaceOnUse" x1="614.4337" y1="820.5092" x2="614.4337" y2="-127.5199" gradientTransform="matrix(1 0 0 -1 0 770.7196)">
			<stop  offset="0" style="stop-color:#FFF33B"/>
			<stop  offset="0.014" style="stop-color:#FEE72E"/>
			<stop  offset="0.042" style="stop-color:#FED51B"/>
			<stop  offset="0.07" style="stop-color:#FDCA10"/>
			<stop  offset="0.1" style="stop-color:#FDC70C"/>
			<stop  offset="0.4" style="stop-color:#F3903F"/>
			<stop  offset="0.8" style="stop-color:#ED683C"/>
			<stop  offset="1" style="stop-color:#E93E3A"/>
		</linearGradient>
		<path style="fill:url(#SVGID_2_);" d="M635.571,528.586l-106.97,106.97c-17.581,17.865-17.351,46.6,0.514,64.181
			c17.66,17.379,45.995,17.382,63.659,0.007l106.97-106.97c17.869-17.577,18.106-46.311,0.53-64.181
			c-17.577-17.869-46.311-18.106-64.181-0.53C635.918,528.236,635.744,528.41,635.571,528.586z M678.353,571.383l-106.97,106.97
			c-5.911,5.907-15.492,5.904-21.399-0.008s-5.904-15.492,0.008-21.399l106.97-106.97c5.911-5.907,15.492-5.904,21.399,0.008
			S684.265,565.476,678.353,571.383L678.353,571.383z"/>
		
			<linearGradient id="SVGID_3_" gradientUnits="userSpaceOnUse" x1="100.7115" y1="820.5075" x2="100.7115" y2="-127.5216" gradientTransform="matrix(1 0 0 -1 -8.614252e-05 770.7197)">
			<stop  offset="0" style="stop-color:#FFF33B"/>
			<stop  offset="0.014" style="stop-color:#FEE72E"/>
			<stop  offset="0.042" style="stop-color:#FED51B"/>
			<stop  offset="0.07" style="stop-color:#FDCA10"/>
			<stop  offset="0.1" style="stop-color:#FDC70C"/>
			<stop  offset="0.4" style="stop-color:#F3903F"/>
			<stop  offset="0.8" style="stop-color:#ED683C"/>
			<stop  offset="1" style="stop-color:#E93E3A"/>
		</linearGradient>
		<polygon style="fill:url(#SVGID_3_);" points="79.317,143.484 100.711,122.09 122.106,143.484 100.711,164.879 		"/>
		
			<linearGradient id="SVGID_4_" gradientUnits="userSpaceOnUse" x1="143.4868" y1="820.5087" x2="143.4868" y2="-127.5203" gradientTransform="matrix(1 0 0 -1 -3.178781e-04 770.7196)">
			<stop  offset="0" style="stop-color:#FFF33B"/>
			<stop  offset="0.014" style="stop-color:#FEE72E"/>
			<stop  offset="0.042" style="stop-color:#FED51B"/>
			<stop  offset="0.07" style="stop-color:#FDCA10"/>
			<stop  offset="0.1" style="stop-color:#FDC70C"/>
			<stop  offset="0.4" style="stop-color:#F3903F"/>
			<stop  offset="0.8" style="stop-color:#ED683C"/>
			<stop  offset="1" style="stop-color:#E93E3A"/>
		</linearGradient>
		<polygon style="fill:url(#SVGID_4_);" points="122.092,100.717 143.479,79.315 164.881,100.702 143.494,122.104 		"/>
	</g>
</g>
<g>
</g>
<g>
</g>
<g>
</g>
<g>
</g>
<g>
</g>
<g>
</g>
<g>
</g>
<g>
</g>
<g>
</g>
<g>
</g>
<g>
</g>
<g>
</g>
<g>
</g>
<g>
</g>
<g>
</g>
</svg>
